<?xml version="1.0" ?><svg viewBox="0 0 32 32" xmlns="http://www.w3.org/2000/svg"><defs><style>.cls-1{fill:#101820;}</style></defs><title/><g data-name="Layer 23" id="Layer_23"><path class="cls-1" d="M2,28a.94.94,0,0,1-.58-.19A1,1,0,0,1,1,27V8a1,1,0,0,1,.68-1l9-3a1.06,1.06,0,0,1,.61,0L21,7l8.7-2.9a1,1,0,0,1,.9.14A1,1,0,0,1,31,5V24a1,1,0,0,1-.68.95l-9,3a1.06,1.06,0,0,1-.61,0L11,25.05,2.32,28A1.19,1.19,0,0,1,2,28Zm9-5a1,1,0,0,1,.29,0L21,26l8-2.67V6.39L21.32,9a1.06,1.06,0,0,1-.61,0L11,6.05,3,8.72V25.61l7.68-2.56A1.19,1.19,0,0,1,11,23Zm19,1h0Z"/><path class="cls-1" d="M21,27a1,1,0,0,1-1-1V8a1,1,0,0,1,2,0V26A1,1,0,0,1,21,27Z"/><path class="cls-1" d="M11,24a1,1,0,0,1-1-1V5a1,1,0,0,1,2,0V23A1,1,0,0,1,11,24Z"/></g></svg>